<svg width="120" height="120" viewBox="0 0 120 120" fill="none" xmlns="http://www.w3.org/2000/svg">
  <circle cx="60" cy="60" r="60" fill="#2A2A2A"/>
  <path d="M60 30C47.85 30 38 39.85 38 52C38 64.15 47.85 74 60 74C72.15 74 82 64.15 82 52C82 39.85 72.15 30 60 30ZM60 38C65.52 38 70 42.48 70 48C70 53.52 65.52 58 60 58C54.48 58 50 53.52 50 48C50 42.48 54.48 38 60 38ZM60 90C49.05 90 39.27 84.78 33 76.62C33.12 64.32 57 60 60 60C62.97 60 86.88 64.32 87 76.62C80.73 84.78 70.95 90 60 90Z" fill="#FFD700"/>
</svg>